<?xml version="1.0" encoding="UTF-8" standalone="no"?>
<!-- Created with Inkscape (http://www.inkscape.org/) -->

<svg
   width="210mm"
   height="297mm"
   viewBox="0 0 210 297"
   version="1.1"
   id="svg2766"
   inkscape:version="1.2.2 (b0a84865, 2022-12-01)"
   sodipodi:docname="logo.svg"
   xmlns:inkscape="http://www.inkscape.org/namespaces/inkscape"
   xmlns:sodipodi="http://sodipodi.sourceforge.net/DTD/sodipodi-0.dtd"
   xmlns="http://www.w3.org/2000/svg"
   xmlns:svg="http://www.w3.org/2000/svg">
  <sodipodi:namedview
     id="namedview2768"
     pagecolor="#ffffff"
     bordercolor="#666666"
     borderopacity="1.0"
     inkscape:showpageshadow="2"
     inkscape:pageopacity="0.0"
     inkscape:pagecheckerboard="0"
     inkscape:deskcolor="#d1d1d1"
     inkscape:document-units="mm"
     showgrid="false"
     showguides="false"
     inkscape:zoom="1.2424368"
     inkscape:cx="512.29968"
     inkscape:cy="567.03083"
     inkscape:window-width="1290"
     inkscape:window-height="798"
     inkscape:window-x="48"
     inkscape:window-y="25"
     inkscape:window-maximized="0"
     inkscape:current-layer="layer1" />
  <defs
     id="defs2763">
    <clipPath
       clipPathUnits="userSpaceOnUse"
       id="clipPath10032">
      <g
         id="g10038">
        <g
           id="g10036"
           transform="matrix(0.35277777,0,0,-0.35277777,130.03731,206.12421)">
          <path
             d="M 0,155.906 H 240.945 V 0 H 0 Z"
             id="path10034" />
        </g>
      </g>
    </clipPath>
    <clipPath
       clipPathUnits="userSpaceOnUse"
       id="clipPath10052">
      <g
         id="g10058">
        <g
           id="g10056"
           transform="matrix(0.35277777,0,0,-0.35277777,130.03731,206.12421)">
          <path
             d="M 0,155.906 H 240.945 V 0 H 0 Z"
             id="path10054" />
        </g>
      </g>
    </clipPath>
    <clipPath
       clipPathUnits="userSpaceOnUse"
       id="clipPath10067">
      <g
         id="g10073">
        <g
           id="g10071"
           transform="matrix(0.35277777,0,0,-0.35277777,130.03731,206.12421)">
          <path
             d="M 0,155.906 H 240.945 V 0 H 0 Z"
             id="path10069" />
        </g>
      </g>
    </clipPath>
    <clipPath
       clipPathUnits="userSpaceOnUse"
       id="clipPath10102">
      <g
         id="g10108">
        <g
           id="g10106">
          <path
             d="m 130.03731,151.12404 h 85.00004 v 55.00017 h -85.00004 z"
             id="path10104"
             style="stroke-width:0.352778" />
        </g>
      </g>
    </clipPath>
    <clipPath
       clipPathUnits="userSpaceOnUse"
       id="clipPath10117">
      <g
         id="g10123">
        <g
           id="g10121">
          <path
             d="m 130.03731,151.12404 h 85.00004 v 55.00017 h -85.00004 z"
             id="path10119"
             style="stroke-width:0.352778" />
        </g>
      </g>
    </clipPath>
  </defs>
  <g
     inkscape:label="Calque 1"
     inkscape:groupmode="layer"
     id="layer1">
    <g
       id="g10190">
      <path
         d="m 184.18732,175.03817 c 0.58632,0.8195 1.02235,1.7399 1.28658,2.70334 0.0586,0.24341 0.14464,0.47942 0.17815,0.72742 l 0.11677,0.73872 0.0416,0.74542 c 0.0198,0.24765 -0.0138,0.49601 -0.0187,0.74401 -0.0649,0.98848 -0.28398,1.96144 -0.64311,2.87655 -0.37218,0.90981 -0.87418,1.75824 -1.47602,2.52412 -1.2125,1.52753 -2.85186,2.68182 -4.65032,3.36056 -1.80128,0.67522 -3.77754,0.86537 -5.64868,0.50448 1.88489,0.28045 3.82729,0.004 5.55908,-0.72955 1.73002,-0.73907 3.26143,-1.92546 4.35398,-3.4297 0.54187,-0.75389 0.98143,-1.57657 1.29399,-2.44334 0.29986,-0.87136 0.46319,-1.78294 0.48401,-2.69346 -0.006,-0.2279 0.0173,-0.45579 -0.0116,-0.68227 l -0.066,-0.67769 -0.13512,-0.66604 c -0.0392,-0.22261 -0.12841,-0.43357 -0.18944,-0.65017 -0.27517,-0.85972 -0.70203,-1.66829 -1.25448,-2.3742 -0.1651,-0.21096 -0.1277,-0.51611 0.0833,-0.68121 0.21096,-0.1651 0.51611,-0.12806 0.68121,0.0829 0.004,0.005 0.007,0.0102 0.0113,0.0155 z"
         style="fill:#9c1b20;fill-opacity:1;fill-rule:nonzero;stroke:none;stroke-width:0.352778"
         id="path706"
         clip-path="url(#clipPath10102)"
         transform="matrix(2.6799825,0,0,2.6799825,-318.82095,-329.39344)" />
      <path
         d="m 189.77631,178.70428 c -0.0123,-2.25107 -0.4632,-4.49721 -1.33279,-6.56943 -0.86678,-2.07292 -2.14666,-3.96981 -3.73839,-5.55166 -1.59561,-1.57903 -3.51155,-2.82399 -5.58412,-3.66042 -2.07363,-0.83785 -4.30847,-1.25448 -6.53697,-1.23684 -2.22885,0.0257 -4.44641,0.48507 -6.48759,1.35608 -2.04399,0.86606 -3.90101,2.14665 -5.45958,3.7151 -1.55716,1.57127 -2.80212,3.44805 -3.6382,5.49169 -0.83961,2.04258 -1.26295,4.24921 -1.26118,6.45548 -0.004,2.20662 0.42086,4.41325 1.26012,6.45619 0.83644,2.04364 2.08104,3.92042 3.63855,5.49133 1.55716,1.57092 3.4156,2.8501 5.45959,3.71652 2.04152,0.87101 4.25944,1.33068 6.48829,1.35572 2.2285,0.0176 4.4637,-0.39934 6.53732,-1.23719 2.07257,-0.83679 3.98886,-2.08103 5.58377,-3.66148 1.59209,-1.58185 2.87196,-3.47874 3.73839,-5.55166 0.86959,-2.07257 1.32044,-4.31836 1.33279,-6.56943 m 0,0 c 0.005,2.25107 -0.42968,4.50391 -1.28623,6.58848 -0.85372,2.08597 -2.12443,4.00085 -3.71369,5.60387 -1.59032,1.60126 -3.4858,2.90689 -5.57212,3.7906 -2.08351,0.88794 -4.34728,1.35643 -6.62023,1.38183 -2.27295,0.0173 -4.55401,-0.40816 -6.66962,-1.2633 -2.1149,-0.85407 -4.06823,-2.12513 -5.6963,-3.73556 -1.62384,-1.61361 -2.92911,-3.54895 -3.81318,-5.6642 -0.88723,-2.1142 -1.3469,-4.4062 -1.35925,-6.70172 0.01,-2.29552 0.47167,-4.58787 1.3582,-6.70242 0.88441,-2.11526 2.18969,-4.05025 3.81352,-5.6642 1.62631,-1.61255 3.5814,-2.8822 5.69631,-3.73627 2.1156,-0.85549 4.39702,-1.28094 6.67032,-1.26365 2.2733,0.0258 4.53743,0.49388 6.62058,1.38253 2.08633,0.88406 3.98251,2.18934 5.57177,3.7913 1.58926,1.60338 2.85997,3.51861 3.71369,5.60423 0.85655,2.08457 1.29082,4.33776 1.28623,6.58848"
         style="fill:#9c1b20;fill-opacity:1;fill-rule:nonzero;stroke:none;stroke-width:0.352778"
         id="path710"
         clip-path="url(#clipPath10117)"
         transform="matrix(2.6799825,0,0,2.6799825,-318.82095,-329.39344)" />
      <path
         d="m 178.46502,179.96447 c -0.90029,-0.37677 -1.62031,-1.12007 -1.96532,-1.99249 -0.35737,-0.87065 -0.33726,-1.86337 0.0198,-2.6931 0.35313,-0.83327 1.04105,-1.49437 1.84856,-1.81152 0.80609,-0.3242 1.72014,-0.30339 2.48179,0.03 -0.79587,-0.24659 -1.66511,-0.15593 -2.36573,0.22154 -0.7045,0.37359 -1.22767,1.02341 -1.44427,1.7519 -0.21943,0.72919 -0.13441,1.51729 0.21484,2.15265 0.34255,0.63888 0.9338,1.10913 1.59385,1.30069 0.29492,0.0854 0.46461,0.3937 0.37924,0.68827 -0.0857,0.29492 -0.3937,0.46461 -0.68863,0.37923 -0.0205,-0.006 -0.0402,-0.013 -0.0593,-0.0208 z"
         style="fill:#9c1b20;fill-opacity:1;fill-rule:nonzero;stroke:none;stroke-width:0.352778"
         id="path954"
         clip-path="url(#clipPath10067)"
         transform="matrix(2.6799825,0,0,2.6799825,-318.82095,-329.39344)" />
      <path
         d="m 183.43456,179.60552 c 0.11818,0.67204 0.11783,1.27459 0.0554,1.90465 -0.0681,0.62053 -0.20038,1.23613 -0.43075,1.8168 -0.44943,1.16417 -1.23401,2.1844 -2.20415,2.9143 -0.95321,0.74295 -2.0447,1.30951 -3.20605,1.60232 -1.15428,0.30303 -2.36925,0.37923 -3.52989,0.16333 1.17122,0.13547 2.36149,-0.025 3.4604,-0.39581 1.10666,-0.36125 2.11067,-0.9772 2.96404,-1.74202 0.86607,-0.75001 1.49824,-1.71909 1.82809,-2.7813 0.17004,-0.52952 0.24871,-1.08479 0.27164,-1.6376 0.0212,-0.54363 -0.0307,-1.13065 -0.15064,-1.6129 l -0.008,-0.0307 c -0.0649,-0.26035 0.0938,-0.52352 0.35419,-0.58843 0.26035,-0.0646 0.52388,0.0938 0.58843,0.35384 0.003,0.0109 0.005,0.0229 0.007,0.0335"
         style="fill:#9c1b20;fill-opacity:1;fill-rule:nonzero;stroke:none;stroke-width:0.352778"
         id="path958"
         clip-path="url(#clipPath10052)"
         transform="matrix(2.6799825,0,0,2.6799825,-318.82095,-329.39344)" />
      <path
         d="m 183.02735,168.62806 c 1.80622,1.52259 3.24132,3.48439 4.08869,5.68078 0.8502,2.19181 1.15077,4.59281 0.82762,6.90915 -0.58737,4.64997 -3.68159,8.87095 -7.92162,10.76184 -4.18995,1.98332 -9.3599,1.61079 -13.17837,-0.92851 -3.87033,-2.46062 -6.28227,-6.97371 -6.18913,-11.50655 0.013,4.53637 2.52095,8.9288 6.35599,11.24303 3.78778,2.395 8.79264,2.61443 12.7441,0.629 4.0065,-1.899 6.81426,-5.96724 7.26017,-10.31028 0.25294,-2.16888 -0.0825,-4.38927 -0.91123,-6.38952 -0.82656,-2.00554 -2.18757,-3.77225 -3.86538,-5.12268 l -0.004,-0.003 c -0.26846,-0.21625 -0.31079,-0.60889 -0.0949,-0.877 0.21625,-0.26847 0.60889,-0.31115 0.87735,-0.0949 0.003,0.002 0.008,0.007 0.0109,0.009"
         style="fill:#9c1b20;fill-opacity:1;fill-rule:nonzero;stroke:none;stroke-width:0.352778"
         id="path962"
         clip-path="url(#clipPath10032)"
         transform="matrix(2.6799825,0,0,2.6799825,-318.82095,-329.39344)" />
    </g>
  </g>
</svg>
